HIERARCHY
ROOT SpineBase
{
  OFFSET 0.000000 0.000000 0.000000
  CHANNELS 6 Xposition Yposition Zposition Zrotation Xrotation Yrotation
  JOINT SpineMid
  {
    OFFSET -0.000000 30.578953 0.000000
    CHANNELS 3 Zrotation Xrotation Yrotation
    JOINT SpineShoulder
    {
      OFFSET 0.106478 22.698400 -0.862059
      CHANNELS 3 Zrotation Xrotation Yrotation
      JOINT Neck
      {
        OFFSET 0.118126 7.522287 -0.622374
        CHANNELS 3 Zrotation Xrotation Yrotation
        JOINT Head
        {
          OFFSET 3.546316 13.645075 2.844905
          CHANNELS 3 Zrotation Xrotation Yrotation
          End Site
          {
            OFFSET 0 0 0
          }
        }
      }
      JOINT ShoulderLeft
      {
        OFFSET -11.897773 -3.457947 -10.363399
        CHANNELS 3 Zrotation Xrotation Yrotation
        JOINT ElbowLeft
        {
          OFFSET -7.483051 -25.794286 -4.824245
          CHANNELS 3 Zrotation Xrotation Yrotation
          JOINT WristLeft
          {
            OFFSET -1.892288 -20.325873 -4.017587
            CHANNELS 3 Zrotation Xrotation Yrotation
            JOINT HandLeft
            {
              OFFSET -1.099162 -7.458781 1.047841
              CHANNELS 3 Zrotation Xrotation Yrotation
              JOINT HandTipLeft
              {
                OFFSET -0.185172 -8.870193 0.151070
                CHANNELS 3 Zrotation Xrotation Yrotation
                End Site
                {
                  OFFSET 0 0 0
                }
              }
              JOINT ThumbLeft
              {
                OFFSET 4.392637 0.723105 -0.387553
                CHANNELS 3 Zrotation Xrotation Yrotation
                End Site
                {
                  OFFSET 0 0 0
                }
              }
            }
          }
        }
      }
      JOINT ShoulderRight
      {
        OFFSET 12.233012 -2.828192 10.587370
        CHANNELS 3 Zrotation Xrotation Yrotation
        JOINT ElbowRight
        {
          OFFSET 1.943273 -26.033734 8.459208
          CHANNELS 3 Zrotation Xrotation Yrotation
          JOINT WristRight
          {
            OFFSET 0.269830 -27.652429 0.492736
            CHANNELS 3 Zrotation Xrotation Yrotation
            JOINT HandRight
            {
              OFFSET -1.222226 -1.132189 2.136544
              CHANNELS 3 Zrotation Xrotation Yrotation
              JOINT HandTipRight
              {
                OFFSET 1.719190 -3.363341 2.106459
                CHANNELS 3 Zrotation Xrotation Yrotation
                End Site
                {
                  OFFSET 0 0 0
                }
              }
              JOINT ThumbRight
              {
                OFFSET -0.864093 1.492972 -3.713454
                CHANNELS 3 Zrotation Xrotation Yrotation
                End Site
                {
                  OFFSET 0 0 0
                }
              }
            }
          }
        }
      }
    }
  }
  JOINT HipLeft
  {
    OFFSET -4.840143 1.613175 -7.303772
    CHANNELS 3 Zrotation Xrotation Yrotation
    JOINT KneeLeft
    {
      OFFSET -9.859110 -34.857790 -2.150969
      CHANNELS 3 Zrotation Xrotation Yrotation
      JOINT AnkleLeft
      {
        OFFSET -3.976627 -38.543144 11.212369
        CHANNELS 3 Zrotation Xrotation Yrotation
        JOINT FootLeft
        {
          OFFSET 2.623145 -8.198800 -5.007859
          CHANNELS 3 Zrotation Xrotation Yrotation
          End Site
          {
            OFFSET 0 0 0
          }
        }
      }
    }
  }
  JOINT HipRight
  {
    OFFSET 5.829192 0.139513 0.426617
    CHANNELS 3 Zrotation Xrotation Yrotation
    JOINT KneeRight
    {
      OFFSET 4.171637 -36.368528 0.999111
      CHANNELS 3 Zrotation Xrotation Yrotation
      JOINT AnkleRight
      {
        OFFSET -1.258356 -37.760437 1.326177
        CHANNELS 3 Zrotation Xrotation Yrotation
        JOINT FootRight
        {
          OFFSET 6.802127 -3.860046 -11.477725
          CHANNELS 3 Zrotation Xrotation Yrotation
          End Site
          {
            OFFSET 0 0 0
          }
        }
      }
    }
  }
}
MOTION
Frames: 9
Frame Time: 0.033333
-47.919846 86.309708 333.712673 2.588029 -2.113856 -41.557383 -0.370230 0.012461 41.701114 0.238909 0.181588 0.133074 12.414909 -1.719445 -2.560676 0.000000 0.000000 0.000000 52.154265 37.957033 -44.916413 80.245845 14.838373 33.291291 6.706776 -11.416149 100.660509 -6.012462 10.854147 -31.866533 0.000000 0.000000 0.000000 0.000000 0.000000 0.000000 41.281097 44.915466 -1.830214 50.448970 70.013077 -97.956906 -63.719613 -35.124946 154.486145 -9.899848 -45.950819 -149.874720 0.000000 0.000000 0.000000 0.000000 0.000000 0.000000 -2.327741 2.300317 41.107348 -4.474853 0.545898 -0.352042 3.105793 0.174333 0.814692 0.000000 0.000000 0.000000 -4.663165 1.266950 41.834016 0.051326 -1.929167 -0.218918 0.794208 -1.070307 -4.305305 0.000000 0.000000 0.000000
-47.823922 87.250851 333.775502 2.740424 -2.222369 -42.627351 -0.349222 -0.005169 42.783428 0.163330 0.156913 0.137291 13.601912 -1.258481 -3.028544 0.000000 0.000000 0.000000 60.151515 34.450899 -48.687242 80.708313 12.112414 46.030071 -2.209196 -12.650230 93.552371 -3.661753 14.058620 -32.552064 0.000000 0.000000 0.000000 0.000000 0.000000 0.000000 40.775555 49.101348 -3.713701 36.313963 71.025586 -87.597942 -59.148749 -40.189223 159.091969 -17.134674 -48.210240 -173.918848 0.000000 0.000000 0.000000 0.000000 0.000000 0.000000 -2.430102 2.155026 42.218565 -4.392981 0.632495 -0.341027 2.647759 0.297801 0.989520 0.000000 0.000000 0.000000 -5.026663 1.184825 42.918044 0.144967 -2.055841 -0.229110 0.802527 -1.053679 -4.298271 0.000000 0.000000 0.000000
-47.784563 87.974617 333.794942 2.789982 -2.327637 -44.359654 -0.298446 0.016472 44.523215 0.117577 0.099441 0.142465 14.496390 -0.608302 -3.513048 0.000000 0.000000 0.000000 65.995990 30.641214 -50.435361 81.769748 9.489710 59.929363 -14.327386 -21.846083 94.030233 10.009807 12.391702 -39.726725 0.000000 0.000000 0.000000 0.000000 0.000000 0.000000 39.941495 53.058622 -5.477597 24.222744 68.544552 -74.025663 -66.443564 -44.051645 162.648187 -36.633914 -49.434081 156.479888 0.000000 0.000000 0.000000 0.000000 0.000000 0.000000 -2.274835 1.989911 44.033467 -4.485309 0.937063 -0.389633 2.175865 0.242705 1.197960 0.000000 0.000000 0.000000 -5.299433 1.227063 44.676232 0.128298 -2.257145 -0.252717 0.805578 -1.061867 -4.322737 0.000000 0.000000 0.000000
-47.775581 88.477297 333.787677 2.737061 -2.381466 -46.485125 -0.312300 0.081058 46.646532 0.115460 0.074817 0.142897 15.357336 -0.332063 -3.838637 0.000000 0.000000 0.000000 69.884995 27.601452 -51.009889 81.393901 6.724890 71.646368 -27.256819 -33.048843 95.521712 27.376978 18.803534 -46.355486 0.000000 0.000000 0.000000 0.000000 0.000000 0.000000 39.692720 55.107967 -6.396214 15.834148 70.725088 -72.495716 -67.232588 -52.128205 167.456464 -52.428459 -46.025495 132.324818 0.000000 0.000000 0.000000 0.000000 0.000000 0.000000 -1.943133 1.777418 46.271656 -4.580746 1.332930 -0.465789 1.520589 0.005241 1.463298 0.000000 0.000000 0.000000 -5.500878 1.337542 46.835788 0.064923 -2.530649 -0.286913 0.817974 -1.099544 -4.430583 0.000000 0.000000 0.000000
-47.756385 88.753154 333.739379 2.711237 -2.330752 -48.335744 -0.390644 0.091970 48.491672 0.124519 0.074017 0.139653 16.123581 -0.483107 -3.960083 0.000000 0.000000 0.000000 71.702768 24.683760 -49.671264 80.919509 4.089809 78.548547 -44.751681 -28.611991 82.240469 24.305478 18.411798 -35.914339 0.000000 0.000000 0.000000 0.000000 0.000000 0.000000 40.207674 55.839380 -6.817098 9.977152 71.421177 -71.126398 -63.699260 -71.033589 179.972279 -68.954091 -41.861219 102.835526 0.000000 0.000000 0.000000 0.000000 0.000000 0.000000 -1.526782 1.465950 48.246726 -4.688295 1.776327 -0.564176 0.988749 -0.381561 1.652211 0.000000 0.000000 0.000000 -5.654781 1.337449 48.710378 -0.346334 -2.066678 -0.370806 1.145300 -1.701754 -4.008080 0.000000 0.000000 0.000000
-47.706508 88.972806 333.699860 2.665463 -2.197522 -49.694844 -0.430672 0.074478 49.843031 0.136203 0.088354 0.134972 16.967432 -1.054836 -3.910899 0.000000 0.000000 0.000000 71.062885 22.620612 -46.921126 80.553554 0.266410 81.976267 -49.907222 -17.280127 71.696818 16.912453 12.041506 -28.408755 0.000000 0.000000 0.000000 0.000000 0.000000 0.000000 38.777804 56.607947 -6.653941 4.124441 70.030098 -64.673072 -35.610784 -87.284777 -138.505082 -83.899435 -32.496917 81.550858 0.000000 0.000000 0.000000 0.000000 0.000000 0.000000 -1.109632 1.191711 49.704119 -4.801764 2.133589 -0.654812 0.676344 -0.829325 1.736708 0.000000 0.000000 0.000000 -5.719892 1.286317 50.084245 -0.430003 -2.283631 -0.403392 1.196894 -1.604372 -3.726789 0.000000 0.000000 0.000000
-47.616467 88.978792 333.662147 2.605827 -1.996369 -49.261111 -0.441687 0.075578 49.399810 0.125584 0.121371 0.127974 18.027825 -2.034433 -3.716725 0.000000 0.000000 0.000000 71.697196 20.600554 -45.209200 78.261199 -6.454567 89.864243 -47.387064 -8.494750 63.857176 14.577112 4.199165 -25.421863 0.000000 0.000000 0.000000 0.000000 0.000000 0.000000 38.497316 57.210633 -6.699043 1.876649 67.815242 -60.983716 115.053165 -82.841396 28.845024 -91.605900 -16.880733 73.537141 0.000000 0.000000 0.000000 0.000000 0.000000 0.000000 -0.909651 1.082894 49.274483 -4.813211 2.105329 -0.666124 0.307789 -1.273716 1.825510 0.000000 0.000000 0.000000 -5.508653 1.112215 49.625987 -0.462120 -2.161000 -0.397902 1.219708 -1.404229 -2.988970 0.000000 0.000000 0.000000
-47.476276 88.609681 333.538555 2.599620 -1.664746 -46.174435 -0.417376 0.039712 46.303756 0.121019 0.114525 0.123658 19.014204 -3.057065 -3.475257 0.000000 0.000000 0.000000 67.970599 19.386409 -40.872723 76.193800 -12.615581 86.259334 -39.558900 -4.368121 57.422239 12.386809 -9.160387 -23.017667 0.000000 0.000000 0.000000 0.000000 0.000000 0.000000 35.907248 56.439464 -5.424988 0.745438 66.380893 -55.956876 131.793198 -80.232001 59.885853 -94.827969 -4.660274 79.044931 0.000000 0.000000 0.000000 0.000000 0.000000 0.000000 -0.932105 1.060460 46.091699 -4.761248 1.731291 -0.610496 0.056225 -1.488605 1.948930 0.000000 0.000000 0.000000 -4.847150 0.604021 46.441026 -0.424968 -1.457063 -0.319745 1.222287 -1.144146 -1.994037 0.000000 0.000000 0.000000
-47.315015 88.188920 333.345227 2.665705 -1.320207 -45.138693 -0.399039 -0.027265 45.261401 0.115538 0.070429 0.123287 19.752338 -3.851343 -3.280973 0.000000 0.000000 0.000000 63.222786 17.621777 -35.661484 77.369615 -17.652357 85.673666 -30.462542 3.780777 49.415773 14.264764 -17.143420 -23.435032 0.000000 0.000000 0.000000 0.000000 0.000000 0.000000 32.371033 55.045435 -3.791289 -2.266195 64.429410 -48.826760 150.976104 -78.971565 93.475994 -98.806814 6.681775 92.409847 0.000000 0.000000 0.000000 0.000000 0.000000 0.000000 -0.725073 0.627480 45.094013 -4.677581 1.792081 -0.648107 -0.211493 -1.385669 2.155957 0.000000 0.000000 0.000000 -4.574909 0.041154 45.341280 -0.292169 -1.070858 -0.280276 1.155298 -0.910135 -0.974051 0.000000 0.000000 0.000000
